<svg width="66" height="30" viewBox="0 0 66 30" fill="none" xmlns="http://www.w3.org/2000/svg">
<path d="M2 13C0.895431 13 9.65645e-08 13.8954 0 15C-9.65645e-08 16.1046 0.89543 17 2 17L2 13ZM65.4142 16.4142C66.1953 15.6332 66.1953 14.3668 65.4142 13.5858L52.6863 0.857869C51.9052 0.0768202 50.6389 0.07682 49.8579 0.857869C49.0768 1.63892 49.0768 2.90525 49.8579 3.6863L61.1716 15L49.8579 26.3137C49.0768 27.0948 49.0768 28.3611 49.8579 29.1421C50.6389 29.9232 51.9052 29.9232 52.6863 29.1421L65.4142 16.4142ZM2 17L64 17L64 13L2 13L2 17Z" fill="#FF459C"/>
</svg>
