<svg width="243" height="69" viewBox="0 0 243 69" fill="none" xmlns="http://www.w3.org/2000/svg">
<path d="M34.5 68C53.0015 68 68 53.0015 68 34.5C68 15.9985 53.0015 1 34.5 1C15.9985 1 1 15.9985 1 34.5C1 53.0015 15.9985 68 34.5 68Z" stroke="#FF459C" stroke-opacity="0.5" stroke-miterlimit="10"/>
<path d="M34.4999 63.1984C50.3495 63.1984 63.1983 50.3497 63.1983 34.5C63.1983 18.6504 50.3495 5.80164 34.4999 5.80164C18.6502 5.80164 5.80151 18.6504 5.80151 34.5C5.80151 50.3497 18.6502 63.1984 34.4999 63.1984Z" stroke="#FF459C" stroke-opacity="0.5" stroke-miterlimit="10"/>
<path d="M34.5001 58.4339C47.7184 58.4339 58.434 47.7183 58.434 34.5C58.434 21.2817 47.7184 10.5661 34.5001 10.5661C21.2817 10.5661 10.5662 21.2817 10.5662 34.5C10.5662 47.7183 21.2817 58.4339 34.5001 58.4339Z" stroke="#FF459C" stroke-opacity="0.5" stroke-miterlimit="10"/>
<path d="M34.5001 53.6322C45.0665 53.6322 53.6323 45.0664 53.6323 34.5C53.6323 23.9335 45.0665 15.3678 34.5001 15.3678C23.9337 15.3678 15.3679 23.9335 15.3679 34.5C15.3679 45.0664 23.9337 53.6322 34.5001 53.6322Z" stroke="#FF459C" stroke-opacity="0.5" stroke-miterlimit="10"/>
<path d="M34.4999 48.8678C42.435 48.8678 48.8677 42.4351 48.8677 34.5C48.8677 26.5649 42.435 20.1322 34.4999 20.1322C26.5648 20.1322 20.1321 26.5649 20.1321 34.5C20.1321 42.4351 26.5648 48.8678 34.4999 48.8678Z" stroke="#FF459C" stroke-opacity="0.5" stroke-miterlimit="10"/>
<path d="M34.4999 44.0661C39.7831 44.0661 44.066 39.7832 44.066 34.5C44.066 29.2168 39.7831 24.9339 34.4999 24.9339C29.2167 24.9339 24.9338 29.2168 24.9338 34.5C24.9338 39.7832 29.2167 44.0661 34.4999 44.0661Z" stroke="#FF459C" stroke-opacity="0.5" stroke-miterlimit="10"/>
<path d="M34.5001 39.3016C37.152 39.3016 39.3017 37.1519 39.3017 34.5C39.3017 31.8481 37.152 29.6984 34.5001 29.6984C31.8482 29.6984 29.6985 31.8481 29.6985 34.5C29.6985 37.1519 31.8482 39.3016 34.5001 39.3016Z" stroke="#FF459C" stroke-opacity="0.5" stroke-miterlimit="10"/>
<path d="M121.5 68C140.002 68 155 53.0015 155 34.5C155 15.9985 140.002 1 121.5 1C102.998 1 88 15.9985 88 34.5C88 53.0015 102.998 68 121.5 68Z" stroke="#FF459C" stroke-opacity="0.5" stroke-miterlimit="10"/>
<path d="M121.5 63.1984C137.35 63.1984 150.198 50.3497 150.198 34.5C150.198 18.6504 137.35 5.80164 121.5 5.80164C105.65 5.80164 92.8015 18.6504 92.8015 34.5C92.8015 50.3497 105.65 63.1984 121.5 63.1984Z" stroke="#FF459C" stroke-opacity="0.5" stroke-miterlimit="10"/>
<path d="M121.5 58.4339C134.718 58.4339 145.434 47.7183 145.434 34.5C145.434 21.2817 134.718 10.5661 121.5 10.5661C108.282 10.5661 97.5662 21.2817 97.5662 34.5C97.5662 47.7183 108.282 58.4339 121.5 58.4339Z" stroke="#FF459C" stroke-opacity="0.5" stroke-miterlimit="10"/>
<path d="M121.5 53.6322C132.067 53.6322 140.632 45.0664 140.632 34.5C140.632 23.9335 132.067 15.3678 121.5 15.3678C110.934 15.3678 102.368 23.9335 102.368 34.5C102.368 45.0664 110.934 53.6322 121.5 53.6322Z" stroke="#FF459C" stroke-opacity="0.5" stroke-miterlimit="10"/>
<path d="M121.5 48.8678C129.435 48.8678 135.868 42.4351 135.868 34.5C135.868 26.5649 129.435 20.1322 121.5 20.1322C113.565 20.1322 107.132 26.5649 107.132 34.5C107.132 42.4351 113.565 48.8678 121.5 48.8678Z" stroke="#FF459C" stroke-opacity="0.5" stroke-miterlimit="10"/>
<path d="M121.5 44.0661C126.783 44.0661 131.066 39.7832 131.066 34.5C131.066 29.2168 126.783 24.9339 121.5 24.9339C116.217 24.9339 111.934 29.2168 111.934 34.5C111.934 39.7832 116.217 44.0661 121.5 44.0661Z" stroke="#FF459C" stroke-opacity="0.5" stroke-miterlimit="10"/>
<path d="M121.5 39.3016C124.152 39.3016 126.302 37.1519 126.302 34.5C126.302 31.8481 124.152 29.6984 121.5 29.6984C118.848 29.6984 116.698 31.8481 116.698 34.5C116.698 37.1519 118.848 39.3016 121.5 39.3016Z" stroke="#FF459C" stroke-opacity="0.5" stroke-miterlimit="10"/>
<path d="M208.5 68C227.002 68 242 53.0015 242 34.5C242 15.9985 227.002 1 208.5 1C189.998 1 175 15.9985 175 34.5C175 53.0015 189.998 68 208.5 68Z" stroke="#FF459C" stroke-opacity="0.5" stroke-miterlimit="10"/>
<path d="M208.5 63.1984C224.35 63.1984 237.198 50.3497 237.198 34.5C237.198 18.6504 224.35 5.80164 208.5 5.80164C192.65 5.80164 179.802 18.6504 179.802 34.5C179.802 50.3497 192.65 63.1984 208.5 63.1984Z" stroke="#FF459C" stroke-opacity="0.5" stroke-miterlimit="10"/>
<path d="M208.5 58.4339C221.718 58.4339 232.434 47.7183 232.434 34.5C232.434 21.2817 221.718 10.5661 208.5 10.5661C195.282 10.5661 184.566 21.2817 184.566 34.5C184.566 47.7183 195.282 58.4339 208.5 58.4339Z" stroke="#FF459C" stroke-opacity="0.5" stroke-miterlimit="10"/>
<path d="M208.5 53.6322C219.067 53.6322 227.632 45.0664 227.632 34.5C227.632 23.9335 219.067 15.3678 208.5 15.3678C197.934 15.3678 189.368 23.9335 189.368 34.5C189.368 45.0664 197.934 53.6322 208.5 53.6322Z" stroke="#FF459C" stroke-opacity="0.5" stroke-miterlimit="10"/>
<path d="M208.5 48.8678C216.435 48.8678 222.868 42.4351 222.868 34.5C222.868 26.5649 216.435 20.1322 208.5 20.1322C200.565 20.1322 194.132 26.5649 194.132 34.5C194.132 42.4351 200.565 48.8678 208.5 48.8678Z" stroke="#FF459C" stroke-opacity="0.5" stroke-miterlimit="10"/>
<path d="M208.5 44.0661C213.783 44.0661 218.066 39.7832 218.066 34.5C218.066 29.2168 213.783 24.9339 208.5 24.9339C203.217 24.9339 198.934 29.2168 198.934 34.5C198.934 39.7832 203.217 44.0661 208.5 44.0661Z" stroke="#FF459C" stroke-opacity="0.5" stroke-miterlimit="10"/>
<path d="M208.5 39.3016C211.152 39.3016 213.302 37.1519 213.302 34.5C213.302 31.8481 211.152 29.6984 208.5 29.6984C205.848 29.6984 203.698 31.8481 203.698 34.5C203.698 37.1519 205.848 39.3016 208.5 39.3016Z" stroke="#FF459C" stroke-opacity="0.5" stroke-miterlimit="10"/>
</svg>
