<svg width="243" height="69" viewBox="0 0 243 69" fill="none" xmlns="http://www.w3.org/2000/svg">
<path d="M34.5 68C53.0015 68 68 53.0015 68 34.5C68 15.9985 53.0015 1 34.5 1C15.9985 1 1 15.9985 1 34.5C1 53.0015 15.9985 68 34.5 68Z" stroke="#FF459C" stroke-opacity="0.3" stroke-miterlimit="10"/>
<path d="M34.4999 68C49.9179 68 62.4166 53.0015 62.4166 34.5C62.4166 15.9985 49.9179 1 34.4999 1C19.082 1 6.58325 15.9985 6.58325 34.5C6.58325 53.0015 19.082 68 34.4999 68Z" stroke="#FF459C" stroke-opacity="0.3" stroke-miterlimit="10"/>
<path d="M34.5 68C46.8343 68 56.8333 53.0015 56.8333 34.5C56.8333 15.9985 46.8343 1 34.5 1C22.1656 1 12.1666 15.9985 12.1666 34.5C12.1666 53.0015 22.1656 68 34.5 68Z" stroke="#FF459C" stroke-opacity="0.3" stroke-miterlimit="10"/>
<path d="M34.4999 68C43.7506 68 51.2499 53.0015 51.2499 34.5C51.2499 15.9985 43.7506 1 34.4999 1C25.2491 1 17.7499 15.9985 17.7499 34.5C17.7499 53.0015 25.2491 68 34.4999 68Z" stroke="#FF459C" stroke-opacity="0.3" stroke-miterlimit="10"/>
<path d="M34.5 68C40.6672 68 45.6667 53.0015 45.6667 34.5C45.6667 15.9985 40.6672 1 34.5 1C28.3329 1 23.3334 15.9985 23.3334 34.5C23.3334 53.0015 28.3329 68 34.5 68Z" stroke="#FF459C" stroke-opacity="0.3" stroke-miterlimit="10"/>
<path d="M34.5001 68C37.5837 68 40.0834 53.0015 40.0834 34.5C40.0834 15.9985 37.5837 1 34.5001 1C31.4165 1 28.9167 15.9985 28.9167 34.5C28.9167 53.0015 31.4165 68 34.5001 68Z" stroke="#FF459C" stroke-opacity="0.3" stroke-miterlimit="10"/>
<path d="M34.5 68V1" stroke="#FF459C" stroke-opacity="0.3" stroke-miterlimit="10"/>
<path d="M88 34.5C88 53.0015 102.998 68 121.5 68C140.002 68 155 53.0015 155 34.5C155 15.9985 140.002 0.999999 121.5 0.999999C102.998 0.999998 88 15.9985 88 34.5Z" stroke="#FF459C" stroke-opacity="0.3" stroke-miterlimit="10"/>
<path d="M88 34.5C88 49.9179 102.998 62.4166 121.5 62.4166C140.002 62.4166 155 49.9179 155 34.5C155 19.082 140.002 6.5833 121.5 6.5833C102.998 6.5833 88 19.082 88 34.5Z" stroke="#FF459C" stroke-opacity="0.3" stroke-miterlimit="10"/>
<path d="M88 34.4999C88 46.8343 102.998 56.8333 121.5 56.8333C140.002 56.8333 155 46.8343 155 34.5C155 22.1656 140.002 12.1666 121.5 12.1666C102.998 12.1666 88 22.1656 88 34.4999Z" stroke="#FF459C" stroke-opacity="0.3" stroke-miterlimit="10"/>
<path d="M88 34.5C88 43.7508 102.998 51.25 121.5 51.25C140.002 51.25 155 43.7508 155 34.5C155 25.2493 140.002 17.75 121.5 17.75C102.998 17.75 88 25.2493 88 34.5Z" stroke="#FF459C" stroke-opacity="0.3" stroke-miterlimit="10"/>
<path d="M88 34.5C88 40.6672 102.998 45.6667 121.5 45.6667C140.002 45.6667 155 40.6672 155 34.5C155 28.3329 140.002 23.3334 121.5 23.3334C102.998 23.3334 88 28.3329 88 34.5Z" stroke="#FF459C" stroke-opacity="0.3" stroke-miterlimit="10"/>
<path d="M88 34.5C88 37.5836 102.998 40.0834 121.5 40.0834C140.002 40.0834 155 37.5836 155 34.5C155 31.4164 140.002 28.9167 121.5 28.9167C102.998 28.9167 88 31.4164 88 34.5Z" stroke="#FF459C" stroke-opacity="0.3" stroke-miterlimit="10"/>
<path d="M88 34.5L155 34.5" stroke="#FF459C" stroke-opacity="0.3" stroke-miterlimit="10"/>
<path d="M208.5 68C227.002 68 242 53.0015 242 34.5C242 15.9985 227.002 1 208.5 1C189.998 1 175 15.9985 175 34.5C175 53.0015 189.998 68 208.5 68Z" stroke="#FF459C" stroke-opacity="0.3" stroke-miterlimit="10"/>
<path d="M208.5 68C223.918 68 236.417 53.0015 236.417 34.5C236.417 15.9985 223.918 1 208.5 1C193.082 1 180.583 15.9985 180.583 34.5C180.583 53.0015 193.082 68 208.5 68Z" stroke="#FF459C" stroke-opacity="0.3" stroke-miterlimit="10"/>
<path d="M208.5 68C220.834 68 230.833 53.0015 230.833 34.5C230.833 15.9985 220.834 1 208.5 1C196.166 1 186.167 15.9985 186.167 34.5C186.167 53.0015 196.166 68 208.5 68Z" stroke="#FF459C" stroke-opacity="0.3" stroke-miterlimit="10"/>
<path d="M208.5 68C217.751 68 225.25 53.0015 225.25 34.5C225.25 15.9985 217.751 1 208.5 1C199.249 1 191.75 15.9985 191.75 34.5C191.75 53.0015 199.249 68 208.5 68Z" stroke="#FF459C" stroke-opacity="0.3" stroke-miterlimit="10"/>
<path d="M208.5 68C214.667 68 219.667 53.0015 219.667 34.5C219.667 15.9985 214.667 1 208.5 1C202.333 1 197.333 15.9985 197.333 34.5C197.333 53.0015 202.333 68 208.5 68Z" stroke="#FF459C" stroke-opacity="0.3" stroke-miterlimit="10"/>
<path d="M208.5 68C211.584 68 214.083 53.0015 214.083 34.5C214.083 15.9985 211.584 1 208.5 1C205.416 1 202.917 15.9985 202.917 34.5C202.917 53.0015 205.416 68 208.5 68Z" stroke="#FF459C" stroke-opacity="0.3" stroke-miterlimit="10"/>
<path d="M208.5 68V1" stroke="#FF459C" stroke-opacity="0.3" stroke-miterlimit="10"/>
</svg>
