<svg width="243" height="69" viewBox="0 0 243 69" fill="none" xmlns="http://www.w3.org/2000/svg">
<path d="M34.5 68C43.7508 68 51.25 60.5008 51.25 51.25C51.25 41.9992 43.7508 34.5 34.5 34.5C25.2492 34.5 17.75 41.9992 17.75 51.25C17.75 60.5008 25.2492 68 34.5 68Z" stroke="#FF459C" stroke-opacity="0.3" stroke-miterlimit="10"/>
<path d="M34.5 34.5C43.7508 34.5 51.25 27.0008 51.25 17.75C51.25 8.49923 43.7508 1 34.5 1C25.2492 1 17.75 8.49923 17.75 17.75C17.75 27.0008 25.2492 34.5 34.5 34.5Z" stroke="#FF459C" stroke-opacity="0.3" stroke-miterlimit="10"/>
<path d="M49.0167 59.625C58.2675 59.625 65.7667 52.1258 65.7667 42.875C65.7667 33.6242 58.2675 26.125 49.0167 26.125C39.766 26.125 32.2667 33.6242 32.2667 42.875C32.2667 52.1258 39.766 59.625 49.0167 59.625Z" stroke="#FF459C" stroke-opacity="0.3" stroke-miterlimit="10"/>
<path d="M19.9833 42.875C29.234 42.875 36.7333 35.3758 36.7333 26.125C36.7333 16.8742 29.234 9.375 19.9833 9.375C10.7325 9.375 3.23328 16.8742 3.23328 26.125C3.23328 35.3758 10.7325 42.875 19.9833 42.875Z" stroke="#FF459C" stroke-opacity="0.3" stroke-miterlimit="10"/>
<path d="M49.0167 42.875C58.2675 42.875 65.7667 35.3758 65.7667 26.125C65.7667 16.8742 58.2675 9.375 49.0167 9.375C39.766 9.375 32.2667 16.8742 32.2667 26.125C32.2667 35.3758 39.766 42.875 49.0167 42.875Z" stroke="#FF459C" stroke-opacity="0.3" stroke-miterlimit="10"/>
<path d="M19.9833 59.625C29.234 59.625 36.7333 52.1258 36.7333 42.875C36.7333 33.6242 29.234 26.125 19.9833 26.125C10.7325 26.125 3.23328 33.6242 3.23328 42.875C3.23328 52.1258 10.7325 59.625 19.9833 59.625Z" stroke="#FF459C" stroke-opacity="0.3" stroke-miterlimit="10"/>
<path d="M42.875 65.7296C52.1258 65.7296 59.625 58.2304 59.625 48.9796C59.625 39.7288 52.1258 32.2296 42.875 32.2296C33.6242 32.2296 26.125 39.7288 26.125 48.9796C26.125 58.2304 33.6242 65.7296 42.875 65.7296Z" stroke="#FF459C" stroke-opacity="0.3" stroke-miterlimit="10"/>
<path d="M26.125 36.7333C35.3758 36.7333 42.875 29.2341 42.875 19.9833C42.875 10.7326 35.3758 3.23333 26.125 3.23333C16.8742 3.23333 9.375 10.7326 9.375 19.9833C9.375 29.2341 16.8742 36.7333 26.125 36.7333Z" stroke="#FF459C" stroke-opacity="0.3" stroke-miterlimit="10"/>
<path d="M51.25 51.25C60.5008 51.25 68 43.7508 68 34.5C68 25.2492 60.5008 17.75 51.25 17.75C41.9992 17.75 34.5 25.2492 34.5 34.5C34.5 43.7508 41.9992 51.25 51.25 51.25Z" stroke="#FF459C" stroke-opacity="0.3" stroke-miterlimit="10"/>
<path d="M17.75 51.25C27.0008 51.25 34.5 43.7508 34.5 34.5C34.5 25.2492 27.0008 17.75 17.75 17.75C8.49923 17.75 1 25.2492 1 34.5C1 43.7508 8.49923 51.25 17.75 51.25Z" stroke="#FF459C" stroke-opacity="0.3" stroke-miterlimit="10"/>
<path d="M42.875 36.7333C52.1258 36.7333 59.625 29.2341 59.625 19.9833C59.625 10.7326 52.1258 3.23333 42.875 3.23333C33.6242 3.23333 26.125 10.7326 26.125 19.9833C26.125 29.2341 33.6242 36.7333 42.875 36.7333Z" stroke="#FF459C" stroke-opacity="0.3" stroke-miterlimit="10"/>
<path d="M26.125 65.7296C35.3758 65.7296 42.875 58.2304 42.875 48.9796C42.875 39.7288 35.3758 32.2296 26.125 32.2296C16.8742 32.2296 9.375 39.7288 9.375 48.9796C9.375 58.2304 16.8742 65.7296 26.125 65.7296Z" stroke="#FF459C" stroke-opacity="0.3" stroke-miterlimit="10"/>
<path d="M121.5 68C130.751 68 138.25 60.5008 138.25 51.25C138.25 41.9992 130.751 34.5 121.5 34.5C112.249 34.5 104.75 41.9992 104.75 51.25C104.75 60.5008 112.249 68 121.5 68Z" stroke="#FF459C" stroke-opacity="0.3" stroke-miterlimit="10"/>
<path d="M121.5 34.5C130.751 34.5 138.25 27.0008 138.25 17.75C138.25 8.49923 130.751 1 121.5 1C112.249 1 104.75 8.49923 104.75 17.75C104.75 27.0008 112.249 34.5 121.5 34.5Z" stroke="#FF459C" stroke-opacity="0.3" stroke-miterlimit="10"/>
<path d="M136.017 59.625C145.267 59.625 152.767 52.1258 152.767 42.875C152.767 33.6242 145.267 26.125 136.017 26.125C126.766 26.125 119.267 33.6242 119.267 42.875C119.267 52.1258 126.766 59.625 136.017 59.625Z" stroke="#FF459C" stroke-opacity="0.3" stroke-miterlimit="10"/>
<path d="M106.983 42.875C116.234 42.875 123.733 35.3758 123.733 26.125C123.733 16.8742 116.234 9.375 106.983 9.375C97.7325 9.375 90.2333 16.8742 90.2333 26.125C90.2333 35.3758 97.7325 42.875 106.983 42.875Z" stroke="#FF459C" stroke-opacity="0.3" stroke-miterlimit="10"/>
<path d="M136.017 42.875C145.267 42.875 152.767 35.3758 152.767 26.125C152.767 16.8742 145.267 9.375 136.017 9.375C126.766 9.375 119.267 16.8742 119.267 26.125C119.267 35.3758 126.766 42.875 136.017 42.875Z" stroke="#FF459C" stroke-opacity="0.3" stroke-miterlimit="10"/>
<path d="M106.983 59.625C116.234 59.625 123.733 52.1258 123.733 42.875C123.733 33.6242 116.234 26.125 106.983 26.125C97.7325 26.125 90.2333 33.6242 90.2333 42.875C90.2333 52.1258 97.7325 59.625 106.983 59.625Z" stroke="#FF459C" stroke-opacity="0.3" stroke-miterlimit="10"/>
<path d="M129.875 65.7296C139.126 65.7296 146.625 58.2304 146.625 48.9796C146.625 39.7288 139.126 32.2296 129.875 32.2296C120.624 32.2296 113.125 39.7288 113.125 48.9796C113.125 58.2304 120.624 65.7296 129.875 65.7296Z" stroke="#FF459C" stroke-opacity="0.3" stroke-miterlimit="10"/>
<path d="M113.125 36.7333C122.376 36.7333 129.875 29.2341 129.875 19.9833C129.875 10.7326 122.376 3.23333 113.125 3.23333C103.874 3.23333 96.375 10.7326 96.375 19.9833C96.375 29.2341 103.874 36.7333 113.125 36.7333Z" stroke="#FF459C" stroke-opacity="0.3" stroke-miterlimit="10"/>
<path d="M138.25 51.25C147.501 51.25 155 43.7508 155 34.5C155 25.2492 147.501 17.75 138.25 17.75C128.999 17.75 121.5 25.2492 121.5 34.5C121.5 43.7508 128.999 51.25 138.25 51.25Z" stroke="#FF459C" stroke-opacity="0.3" stroke-miterlimit="10"/>
<path d="M104.75 51.25C114.001 51.25 121.5 43.7508 121.5 34.5C121.5 25.2492 114.001 17.75 104.75 17.75C95.4992 17.75 88 25.2492 88 34.5C88 43.7508 95.4992 51.25 104.75 51.25Z" stroke="#FF459C" stroke-opacity="0.3" stroke-miterlimit="10"/>
<path d="M129.875 36.7333C139.126 36.7333 146.625 29.2341 146.625 19.9833C146.625 10.7326 139.126 3.23333 129.875 3.23333C120.624 3.23333 113.125 10.7326 113.125 19.9833C113.125 29.2341 120.624 36.7333 129.875 36.7333Z" stroke="#FF459C" stroke-opacity="0.3" stroke-miterlimit="10"/>
<path d="M113.125 65.7296C122.376 65.7296 129.875 58.2304 129.875 48.9796C129.875 39.7288 122.376 32.2296 113.125 32.2296C103.874 32.2296 96.375 39.7288 96.375 48.9796C96.375 58.2304 103.874 65.7296 113.125 65.7296Z" stroke="#FF459C" stroke-opacity="0.3" stroke-miterlimit="10"/>
<path d="M208.5 68C217.751 68 225.25 60.5008 225.25 51.25C225.25 41.9992 217.751 34.5 208.5 34.5C199.249 34.5 191.75 41.9992 191.75 51.25C191.75 60.5008 199.249 68 208.5 68Z" stroke="#FF459C" stroke-opacity="0.3" stroke-miterlimit="10"/>
<path d="M208.5 34.5C217.751 34.5 225.25 27.0008 225.25 17.75C225.25 8.49923 217.751 1 208.5 1C199.249 1 191.75 8.49923 191.75 17.75C191.75 27.0008 199.249 34.5 208.5 34.5Z" stroke="#FF459C" stroke-opacity="0.3" stroke-miterlimit="10"/>
<path d="M223.017 59.625C232.267 59.625 239.767 52.1258 239.767 42.875C239.767 33.6242 232.267 26.125 223.017 26.125C213.766 26.125 206.267 33.6242 206.267 42.875C206.267 52.1258 213.766 59.625 223.017 59.625Z" stroke="#FF459C" stroke-opacity="0.3" stroke-miterlimit="10"/>
<path d="M193.983 42.875C203.234 42.875 210.733 35.3758 210.733 26.125C210.733 16.8742 203.234 9.375 193.983 9.375C184.733 9.375 177.233 16.8742 177.233 26.125C177.233 35.3758 184.733 42.875 193.983 42.875Z" stroke="#FF459C" stroke-opacity="0.3" stroke-miterlimit="10"/>
<path d="M223.017 42.875C232.267 42.875 239.767 35.3758 239.767 26.125C239.767 16.8742 232.267 9.375 223.017 9.375C213.766 9.375 206.267 16.8742 206.267 26.125C206.267 35.3758 213.766 42.875 223.017 42.875Z" stroke="#FF459C" stroke-opacity="0.3" stroke-miterlimit="10"/>
<path d="M193.983 59.625C203.234 59.625 210.733 52.1258 210.733 42.875C210.733 33.6242 203.234 26.125 193.983 26.125C184.733 26.125 177.233 33.6242 177.233 42.875C177.233 52.1258 184.733 59.625 193.983 59.625Z" stroke="#FF459C" stroke-opacity="0.3" stroke-miterlimit="10"/>
<path d="M216.875 65.7296C226.126 65.7296 233.625 58.2304 233.625 48.9796C233.625 39.7288 226.126 32.2296 216.875 32.2296C207.624 32.2296 200.125 39.7288 200.125 48.9796C200.125 58.2304 207.624 65.7296 216.875 65.7296Z" stroke="#FF459C" stroke-opacity="0.3" stroke-miterlimit="10"/>
<path d="M200.125 36.7333C209.376 36.7333 216.875 29.2341 216.875 19.9833C216.875 10.7326 209.376 3.23333 200.125 3.23333C190.874 3.23333 183.375 10.7326 183.375 19.9833C183.375 29.2341 190.874 36.7333 200.125 36.7333Z" stroke="#FF459C" stroke-opacity="0.3" stroke-miterlimit="10"/>
<path d="M225.25 51.25C234.501 51.25 242 43.7508 242 34.5C242 25.2492 234.501 17.75 225.25 17.75C215.999 17.75 208.5 25.2492 208.5 34.5C208.5 43.7508 215.999 51.25 225.25 51.25Z" stroke="#FF459C" stroke-opacity="0.3" stroke-miterlimit="10"/>
<path d="M191.75 51.25C201.001 51.25 208.5 43.7508 208.5 34.5C208.5 25.2492 201.001 17.75 191.75 17.75C182.499 17.75 175 25.2492 175 34.5C175 43.7508 182.499 51.25 191.75 51.25Z" stroke="#FF459C" stroke-opacity="0.3" stroke-miterlimit="10"/>
<path d="M216.875 36.7333C226.126 36.7333 233.625 29.2341 233.625 19.9833C233.625 10.7326 226.126 3.23333 216.875 3.23333C207.624 3.23333 200.125 10.7326 200.125 19.9833C200.125 29.2341 207.624 36.7333 216.875 36.7333Z" stroke="#FF459C" stroke-opacity="0.3" stroke-miterlimit="10"/>
<path d="M200.125 65.7296C209.376 65.7296 216.875 58.2304 216.875 48.9796C216.875 39.7288 209.376 32.2296 200.125 32.2296C190.874 32.2296 183.375 39.7288 183.375 48.9796C183.375 58.2304 190.874 65.7296 200.125 65.7296Z" stroke="#FF459C" stroke-opacity="0.3" stroke-miterlimit="10"/>
</svg>
