<svg width="40" height="40" viewBox="0 0 40 40" fill="none" xmlns="http://www.w3.org/2000/svg">
<g clip-path="url(#clip0_45_500)">
<path fill-rule="evenodd" clip-rule="evenodd" d="M39 20C39 30.4934 30.4934 39 20 39C9.50659 39 1 30.4934 1 20C1 9.50659 9.50659 1 20 1C30.4934 1 39 9.50659 39 20ZM40 20C40 31.0457 31.0457 40 20 40C8.9543 40 0 31.0457 0 20C0 8.9543 8.9543 0 20 0C31.0457 0 40 8.9543 40 20ZM20.5006 16.7535H24.0619V14.431H20.5006V13.2232C20.5006 12.1084 20.7484 11.3135 21.2439 10.8387C21.76 10.3432 22.6374 10.0955 23.8761 10.0955V7.74194C21.7084 7.74194 20.129 8.18581 19.1381 9.07355C18.1677 9.94065 17.6826 11.3239 17.6826 13.2232V14.431H15.4839V16.7535H17.6826V31.4013H20.5006V16.7535Z" fill="#43485E"/>
</g>
<defs>
<clipPath id="clip0_45_500">
<rect width="40" height="40" fill="white"/>
</clipPath>
</defs>
</svg>
