<svg width="40" height="40" viewBox="0 0 40 40" fill="none" xmlns="http://www.w3.org/2000/svg">
<g clip-path="url(#clip0_45_502)">
<path fill-rule="evenodd" clip-rule="evenodd" d="M39 20C39 30.4934 30.4934 39 20 39C9.50659 39 1 30.4934 1 20C1 9.50659 9.50659 1 20 1C30.4934 1 39 9.50659 39 20ZM40 20C40 31.0457 31.0457 40 20 40C8.9543 40 0 31.0457 0 20C0 8.9543 8.9543 0 20 0C31.0457 0 40 8.9543 40 20ZM28.8373 11.2216C28.9838 11.2467 29.1206 11.3113 29.2331 11.4084C29.3452 11.5053 29.4288 11.6308 29.475 11.7717C29.5212 11.9125 29.5282 12.0632 29.4953 12.2077L25.8127 28.228C25.7576 28.4731 25.6392 28.6995 25.4694 28.8847C25.2995 29.0698 25.0841 29.2072 24.8447 29.2832C24.6981 29.3305 24.545 29.3547 24.391 29.3548C24.0396 29.3542 23.7004 29.2252 23.4375 28.9919L19.793 25.802L17.4959 28.1845C17.2956 28.3938 17.037 28.538 16.7537 28.5983C16.4704 28.6587 16.1754 28.6324 15.9073 28.5229C15.6387 28.4153 15.4086 28.2295 15.2468 27.9896C15.085 27.7497 14.9991 27.4668 15 27.1774V21.8654L10.236 20.93C9.96158 20.8765 9.71199 20.7352 9.5248 20.5276C9.33761 20.3199 9.22295 20.057 9.19808 19.7786C9.17321 19.5001 9.23948 19.2211 9.38691 18.9835C9.53434 18.746 9.75495 18.5627 10.0155 18.4614L28.402 11.2659C28.5404 11.2118 28.6909 11.1965 28.8373 11.2216ZM15.558 20.4955L23.6861 14.6745L11.058 19.6127L15.558 20.4955ZM16.4516 22.8698V27.1774L18.7007 24.8421L16.4516 22.8698ZM16.8916 21.3256L24.3928 27.9032L27.688 13.5876L16.8916 21.3256Z" fill="#43485E"/>
</g>
<defs>
<clipPath id="clip0_45_502">
<rect width="40" height="40" fill="white"/>
</clipPath>
</defs>
</svg>
